<?xml version="1.0" encoding="UTF-8" standalone="no"?>
<!-- Created with Inkscape (http://www.inkscape.org/) -->

<svg
   version="1.1"
   id="svg2"
   width="1706.6667"
   height="1365.3333"
   viewBox="0 0 1706.6667 1365.3333"
   sodipodi:docname="HANMAG logo.ai"
   xmlns:inkscape="http://www.inkscape.org/namespaces/inkscape"
   xmlns:sodipodi="http://sodipodi.sourceforge.net/DTD/sodipodi-0.dtd"
   xmlns="http://www.w3.org/2000/svg"
   xmlns:svg="http://www.w3.org/2000/svg">
  <defs
     id="defs6">
    <clipPath
       clipPathUnits="userSpaceOnUse"
       id="clipPath34">
      <path
         d="M 0,1024 H 1280 V 0 H 0 Z"
         id="path32" />
    </clipPath>
  </defs>
  <sodipodi:namedview
     id="namedview4"
     pagecolor="#ffffff"
     bordercolor="#000000"
     borderopacity="0.25"
     inkscape:showpageshadow="2"
     inkscape:pageopacity="0.0"
     inkscape:pagecheckerboard="0"
     inkscape:deskcolor="#d1d1d1" />
  <g
     id="g8"
     inkscape:groupmode="layer"
     inkscape:label="HANMAG logo"
     transform="matrix(1.3333333,0,0,-1.3333333,0,1365.3333)">
    <path
       d="m 237.967,598.451 h 14.805 V 395.238 H 237.967 Z M 100.362,504.973 H 239.708 V 491.91 H 100.362 Z m -13.063,93.478 h 14.806 V 395.238 H 87.299 Z"
       style="fill:#231f20;fill-opacity:1;fill-rule:nonzero;stroke:none"
       id="path10" />
    <g
       id="g12"
       transform="translate(323.8957,452.4279)">
      <path
         d="M 0,0 4.935,12.482 H 126.572 L 131.508,0 Z M -34.256,-57.19 59.221,146.023 H 74.027 L 167.505,-57.19 H 151.538 L 63.286,136.732 h 6.386 L -18.29,-57.19 Z"
         style="fill:#231f20;fill-opacity:1;fill-rule:nonzero;stroke:none"
         id="path14" />
    </g>
    <g
       id="g16"
       transform="translate(528.2657,395.2378)">
      <path
         d="M 0,0 V 203.213 H 12.483 L 157.344,18.288 h -6.675 v 184.925 h 14.803 V 0 H 153.281 L 8.128,184.923 h 6.678 L 14.806,0 Z"
         style="fill:#231f20;fill-opacity:1;fill-rule:nonzero;stroke:none"
         id="path18" />
    </g>
    <g
       id="g20"
       transform="translate(728.6567,395.0819)">
      <path
         d="M 0,0 V 130.637 H 25.007 L 80.621,38.445 H 67.37 l 54.495,92.192 H 147.06 V 0 h -28.182 l -0.373,87.154 h 5.599 L 80.06,13.997 H 66.625 L 22.02,87.154 h 6.16 L 28.18,0 Z"
         style="fill:#ec2024;fill-opacity:1;fill-rule:nonzero;stroke:none"
         id="path22" />
    </g>
    <g
       id="g24"
       transform="translate(918.8245,423.0755)">
      <path
         d="M 0,0 7.65,22.955 H 75.208 L 83.047,0 Z m -29.3,-27.994 58.041,130.637 h 29.858 l 58.6,-130.637 H 85.473 L 37.511,87.34 h 12.13 L 1.679,-27.994 Z"
         style="fill:#ec2024;fill-opacity:1;fill-rule:nonzero;stroke:none"
         id="path26" />
    </g>
    <g
       id="g28">
      <g
         id="g30"
         clip-path="url(#clipPath34)">
        <g
           id="g36"
           transform="translate(1163.6753,409.4533)">
          <path
             d="M 0,0 -27.621,4.105 V 53 H 0 Z m -52.814,-16.611 c -10.33,0 -19.847,1.65 -28.555,4.947 -8.709,3.295 -16.236,7.993 -22.58,14.09 -6.347,6.093 -11.292,13.25 -14.837,21.461 -3.546,8.211 -5.32,17.231 -5.32,27.06 0,9.827 1.774,18.849 5.32,27.06 3.545,8.211 8.553,15.366 15.023,21.463 6.468,6.093 14.058,10.791 22.767,14.09 8.708,3.295 18.29,4.945 28.741,4.945 11.571,0 21.989,-1.93 31.26,-5.785 9.266,-3.858 17.077,-9.457 23.421,-16.796 L -16.797,78.007 c -4.852,5.101 -10.077,8.865 -15.676,11.291 -5.599,2.426 -11.757,3.639 -18.476,3.639 -6.223,0 -11.943,-1.026 -17.17,-3.078 -5.224,-2.053 -9.736,-4.947 -13.529,-8.679 -3.797,-3.732 -6.719,-8.15 -8.772,-13.249 -2.052,-5.103 -3.078,-10.763 -3.078,-16.984 0,-5.972 1.026,-11.541 3.078,-16.702 2.053,-5.164 4.975,-9.611 8.772,-13.345 3.793,-3.732 8.272,-6.656 13.436,-8.77 5.162,-2.116 10.854,-3.173 17.077,-3.173 5.971,0 11.787,0.994 17.449,2.986 5.66,1.989 11.166,5.288 16.516,9.891 L 0,0 c -7.217,-5.478 -15.489,-9.613 -24.82,-12.411 -9.332,-2.799 -18.663,-4.2 -27.994,-4.2"
             style="fill:#ec2024;fill-opacity:1;fill-rule:nonzero;stroke:none"
             id="path38" />
        </g>
        <g
           id="g40"
           transform="translate(995.325,541.3658)">
          <path
             d="M 0,0 V 34.836 H 2.138 L 18.312,6.917 h -1.144 l 16.125,27.919 h 2.09 L 35.433,0 h -2.488 l -0.051,31.005 h 0.697 L 18.312,4.627 H 17.069 L 1.741,31.005 H 2.487 L 2.487,0 Z"
             style="fill:#000000;fill-opacity:1;fill-rule:nonzero;stroke:none"
             id="path42" />
        </g>
        <g
           id="g44"
           transform="translate(1052.4056,544.5512)">
          <path
             d="m 0,0 c 2.09,0 3.932,0.439 5.524,1.318 1.592,0.879 2.845,2.106 3.757,3.684 0.913,1.573 1.368,3.373 1.368,5.398 0,2.058 -0.455,3.864 -1.368,5.425 -0.912,1.56 -2.165,2.771 -3.757,3.633 C 3.932,20.321 2.09,20.752 0,20.752 c -2.025,0 -3.841,-0.431 -5.449,-1.294 -1.61,-0.862 -2.87,-2.073 -3.783,-3.633 -0.913,-1.561 -1.369,-3.367 -1.369,-5.425 0,-2.025 0.456,-3.825 1.369,-5.398 C -8.319,3.424 -7.059,2.197 -5.449,1.318 -3.841,0.439 -2.025,0 0,0 m 0.498,-13.039 c -2.357,0 -4.597,0.365 -6.719,1.094 -2.124,0.731 -3.849,1.743 -5.176,3.037 l 1.345,1.889 c 1.294,-1.192 2.843,-2.122 4.653,-2.786 1.807,-0.662 3.757,-0.994 5.847,-0.994 3.484,0 6.046,0.812 7.688,2.438 1.643,1.626 2.465,4.179 2.465,7.664 V 6.518 L 11.097,10.4 10.7,14.282 v 8.509 h 2.39 v -23.19 c 0,-4.346 -1.055,-7.539 -3.161,-9.58 -2.108,-2.039 -5.251,-3.06 -9.431,-3.06 M -0.198,-2.24 c -2.457,0 -4.654,0.539 -6.596,1.616 -1.94,1.08 -3.483,2.572 -4.627,4.48 -1.144,1.907 -1.717,4.088 -1.717,6.544 0,2.489 0.573,4.678 1.717,6.569 1.144,1.892 2.687,3.368 4.627,4.429 1.942,1.061 4.139,1.594 6.596,1.594 2.355,0 4.469,-0.506 6.344,-1.519 1.875,-1.012 3.359,-2.456 4.455,-4.329 1.093,-1.876 1.642,-4.123 1.642,-6.744 0,-2.588 -0.549,-4.827 -1.642,-6.719 C 9.505,1.79 8.021,0.33 6.146,-0.697 4.271,-1.725 2.157,-2.24 -0.198,-2.24"
             style="fill:#000000;fill-opacity:1;fill-rule:nonzero;stroke:none"
             id="path46" />
        </g>
        <g
           id="g48"
           transform="translate(1091.5712,541.1168)">
          <path
             d="m 0,0 c -2.588,0 -4.986,0.439 -7.191,1.318 -2.207,0.879 -4.123,2.116 -5.749,3.708 -1.626,1.592 -2.885,3.459 -3.782,5.599 -0.896,2.141 -1.343,4.488 -1.343,7.041 0,2.556 0.447,4.903 1.343,7.043 0.897,2.14 2.166,4.005 3.809,5.599 1.642,1.592 3.558,2.827 5.746,3.708 2.19,0.877 4.579,1.318 7.167,1.318 2.454,0 4.753,-0.399 6.893,-1.195 2.14,-0.795 3.973,-2.006 5.498,-3.632 l -1.592,-1.643 c -1.492,1.46 -3.144,2.513 -4.951,3.161 -1.808,0.646 -3.726,0.97 -5.749,0.97 -2.223,0 -4.289,-0.382 -6.196,-1.144 -1.908,-0.765 -3.566,-1.843 -4.976,-3.236 -1.411,-1.393 -2.505,-3.019 -3.284,-4.876 -0.78,-1.859 -1.171,-3.882 -1.171,-6.073 0,-2.189 0.391,-4.214 1.171,-6.071 0.779,-1.859 1.873,-3.483 3.284,-4.876 1.41,-1.393 3.068,-2.473 4.976,-3.236 1.907,-0.763 3.973,-1.144 6.196,-1.144 2.023,0 3.941,0.324 5.749,0.97 1.807,0.648 3.459,1.717 4.951,3.209 L 12.391,4.876 C 10.866,3.25 9.033,2.031 6.893,1.219 4.753,0.405 2.454,0 0,0"
             style="fill:#000000;fill-opacity:1;fill-rule:nonzero;stroke:none"
             id="path50" />
        </g>
        <g
           id="g52"
           transform="translate(1125.014,543.4557)">
          <path
             d="m 0,0 c 2.223,0 4.281,0.381 6.172,1.144 1.89,0.764 3.532,1.843 4.927,3.236 1.393,1.393 2.479,3.017 3.258,4.876 0.78,1.857 1.171,3.882 1.171,6.071 0,2.224 -0.391,4.257 -1.171,6.097 -0.779,1.841 -1.865,3.459 -3.258,4.852 C 9.704,27.67 8.062,28.747 6.172,29.512 4.281,30.274 2.223,30.656 0,30.656 c -2.224,0 -4.279,-0.382 -6.17,-1.144 -1.892,-0.765 -3.542,-1.842 -4.953,-3.236 -1.41,-1.393 -2.505,-3.011 -3.285,-4.852 -0.78,-1.84 -1.168,-3.873 -1.168,-6.097 0,-2.189 0.388,-4.214 1.168,-6.071 0.78,-1.859 1.875,-3.483 3.285,-4.876 C -9.712,2.987 -8.062,1.908 -6.17,1.144 -4.279,0.381 -2.224,0 0,0 m 0,-2.339 c -2.588,0 -4.986,0.44 -7.191,1.318 -2.207,0.879 -4.131,2.123 -5.773,3.732 -1.642,1.61 -2.912,3.485 -3.807,5.624 -0.895,2.14 -1.345,4.471 -1.345,6.992 0,2.521 0.45,4.854 1.345,6.993 0.895,2.14 2.165,4.013 3.807,5.623 1.642,1.61 3.566,2.853 5.773,3.734 2.205,0.877 4.603,1.318 7.191,1.318 2.588,0 4.986,-0.441 7.191,-1.318 2.207,-0.881 4.123,-2.116 5.749,-3.708 1.624,-1.593 2.893,-3.458 3.807,-5.599 0.911,-2.14 1.369,-4.487 1.369,-7.043 0,-2.553 -0.458,-4.9 -1.369,-7.041 C 15.833,6.146 14.564,4.279 12.94,2.687 11.314,1.096 9.398,-0.142 7.191,-1.021 4.986,-1.899 2.588,-2.339 0,-2.339"
             style="fill:#000000;fill-opacity:1;fill-rule:nonzero;stroke:none"
             id="path54" />
        </g>
        <g
           id="g56"
           transform="translate(1155.9196,531.5609)">
          <path
             d="m 0,0 c -1.792,0 -3.443,0.249 -4.953,0.747 -1.509,0.498 -2.629,1.144 -3.36,1.94 l 0.897,1.495 C -6.719,3.485 -5.717,2.896 -4.404,2.414 -3.094,1.934 -1.626,1.693 0,1.693 c 2.155,0 3.756,0.397 4.801,1.195 1.045,0.795 1.568,1.84 1.568,3.134 0,1.327 -0.515,2.382 -1.543,3.161 -1.029,0.778 -2.621,1.169 -4.777,1.169 h -1.892 v 1.344 L 5.524,19.857 5.771,19.11 H -7.914 v 1.693 H 7.414 v -1.294 l -7.365,-8.161 -0.746,0.547 h 1.045 c 2.621,0 4.603,-0.541 5.946,-1.618 C 7.638,9.2 8.311,7.782 8.311,6.022 8.311,4.894 7.995,3.874 7.365,2.963 6.733,2.049 5.806,1.328 4.578,0.796 3.349,0.267 1.823,0 0,0"
             style="fill:#000000;fill-opacity:1;fill-rule:nonzero;stroke:none"
             id="path58" />
        </g>
        <g
           id="g60"
           transform="translate(749.5839,551.1974)">
          <path
             d="M 0,0 67.807,61.746 135.614,0 Z M -27.344,-8.886 H 162.959 L 67.807,77.76 Z"
             style="fill:#231f20;fill-opacity:1;fill-rule:nonzero;stroke:none"
             id="path62" />
        </g>
        <g
           id="g64"
           transform="translate(888.0558,590.4451)">
          <path
             d="M 0,0 11.468,10.443 66.036,-39.248 H 43.1 Z M 11.468,26.457 -17.586,0 35.273,-48.134 H 93.38 Z"
             style="fill:#231f20;fill-opacity:1;fill-rule:nonzero;stroke:none"
             id="path66" />
        </g>
      </g>
    </g>
  </g>
</svg>
